# xmcd
#
# Track frame offsets:
#	150
#	13698
#	22668
#	34472
#	47659
#	69442
#	84467
#	95910
#	111646
#	126880
#	142343
#	155457
#	174783
#	197309
#	217278
#	231964
#	247397
#	266465
#	278557
#	294732
#
# Disc length: 4119 seconds
#
# Revision: 1
# Processed by: cddbd v1.5.1PL0 Copyright (c) Steve Scherf et al.
# Submitted via: EasyCDDAExtractor 7.0.5.3
#
DISCID=2f101514
DTITLE=Eero Raittinen - Uhkapeluri-Eero Raittinen 60 
DYEAR=1900
DGENRE=
TTITLE0=Lontoo
TTITLE1=Jokeri
TTITLE2=Uhkapeluri
TTITLE3=Heittopussi
TTITLE4=Neidot herkät hennot
TTITLE5=Tuulen viemää
TTITLE6=Kultainen aurinko
TTITLE7=Kuin enkeli
TTITLE8=Mä heitän kaikki pois
TTITLE9=Joo mä lähden pois
TTITLE10=Kuin blues soi yössä eetteriin
TTITLE11=Aamuntähti twist
TTITLE12=Kun mä lasken Niagaran
TTITLE13=Miss on mun taivas
TTITLE14=Se on oikein
TTITLE15=Anna mun
TTITLE16=Sisältäni portin löysin
TTITLE17=Vanha holvikirkko
TTITLE18=Viimeisellä asemalla
TTITLE19=Lehdenjakaja
EXTD=
EXTT0=
EXTT1=
EXTT2=
EXTT3=
EXTT4=
EXTT5=
EXTT6=
EXTT7=
EXTT8=
EXTT9=
EXTT10=
EXTT11=
EXTT12=
EXTT13=
EXTT14=
EXTT15=
EXTT16=
EXTT17=
EXTT18=
EXTT19=
PLAYORDER=
